<svg xmlns="http://www.w3.org/2000/svg" width="386.807" height="45.708" viewBox="0 0 386.807 45.708"><g transform="translate(-147.199 -460.437)"><g transform="translate(187.886 476.721)"><path d="M217.632,491.353v2.337a2.521,2.521,0,0,0,2.56,2.727H238.38a1.416,1.416,0,0,1,.939.286,1.244,1.244,0,0,1,.359,1.013v.253a1.222,1.222,0,0,1-.421,1.018,1.437,1.437,0,0,1-.906.309H217.632v2.47h21.986a2.522,2.522,0,0,0,2.558-2.727V496.7a2.643,2.643,0,0,0-.766-2.01,2.481,2.481,0,0,0-1.792-.745H221.457a1.44,1.44,0,0,1-.9-.307,1.225,1.225,0,0,1-.422-1.02v-.254a1.2,1.2,0,0,1,.366-1,1.478,1.478,0,0,1,.934-.266h20.745v-2.47H220.192a2.522,2.522,0,0,0-2.56,2.727Z" transform="translate(-217.632 -488.626)" fill="#fff"/><path d="M299.379,489.356a2.571,2.571,0,0,0-.833-.537h0a2.55,2.55,0,0,0-.958-.192h-19.37a2.667,2.667,0,0,0-.978.18,2.461,2.461,0,0,0-.815.523,2.568,2.568,0,0,0-.575.858,2.972,2.972,0,0,0-.219,1.166v7.686a2.946,2.946,0,0,0,.219,1.178,2.6,2.6,0,0,0,.576.846,2.432,2.432,0,0,0,.815.523,2.641,2.641,0,0,0,.978.18h19.37a2.725,2.725,0,0,0,.964-.18,2.372,2.372,0,0,0,.828-.522,2.6,2.6,0,0,0,.576-.846,2.946,2.946,0,0,0,.219-1.178v-7.686a2.9,2.9,0,0,0-.22-1.137A2.578,2.578,0,0,0,299.379,489.356Zm-1.7,8.417a1.56,1.56,0,0,1-.391,1.089h0a1.241,1.241,0,0,1-.936.436H279.372a1.118,1.118,0,0,1-.905-.449,1.673,1.673,0,0,1-.338-1.076v-5.152a1.854,1.854,0,0,1,.284-1.06,1.143,1.143,0,0,1,1.016-.464h16.949a1.159,1.159,0,0,1,.978.453,1.725,1.725,0,0,1,.321,1.071Z" transform="translate(-242.126 -488.626)" fill="#fff"/><path d="M336.465,498.848a1.672,1.672,0,0,1-.338-1.076v-9.147h-2.5V499.04a2.947,2.947,0,0,0,.218,1.178,2.61,2.61,0,0,0,.576.846,2.422,2.422,0,0,0,.815.523,2.636,2.636,0,0,0,.976.18h21.958V488.626h-2.5V499.3h-18.3A1.118,1.118,0,0,1,336.465,498.848Z" transform="translate(-266.621 -488.626)" fill="#fff"/><path d="M414.253,496.34a2.515,2.515,0,0,0,1.371-.871,2.717,2.717,0,0,0,.547-1.779v-2.337a2.888,2.888,0,0,0-.22-1.137,2.577,2.577,0,0,0-.575-.86,2.627,2.627,0,0,0-.834-.538,2.548,2.548,0,0,0-.957-.192H391.627v13.141h2.5v-5.349h17.036l2.393,5.349h2.523l-2.108-5.356Zm-.58-3.579a1.022,1.022,0,0,1-.453.97,1.758,1.758,0,0,1-.873.216H394.125V491.1h18.192a1.441,1.441,0,0,1,.97.316,1.3,1.3,0,0,1,.386,1.039Z" transform="translate(-291.116 -488.626)" fill="#fff"/><path d="M473.373,489.356a2.6,2.6,0,0,0-.833-.538,2.552,2.552,0,0,0-.959-.192h-19.37a2.69,2.69,0,0,0-.977.18,2.414,2.414,0,0,0-.814.522,2.559,2.559,0,0,0-.576.859,2.936,2.936,0,0,0-.22,1.166v7.686a2.924,2.924,0,0,0,.218,1.177,2.615,2.615,0,0,0,.577.847,2.4,2.4,0,0,0,.815.523,2.664,2.664,0,0,0,.977.18h19.37a2.724,2.724,0,0,0,.965-.18,2.412,2.412,0,0,0,.828-.522,2.669,2.669,0,0,0,.577-.847,2.947,2.947,0,0,0,.217-1.177v-1.826h-2.5v.559a1.552,1.552,0,0,1-.393,1.089,1.236,1.236,0,0,1-.936.436H453.366a1.128,1.128,0,0,1-.906-.449,1.673,1.673,0,0,1-.337-1.075v-5.152a1.841,1.841,0,0,1,.285-1.061,1.14,1.14,0,0,1,1.013-.464H470.37a1.164,1.164,0,0,1,.979.453,1.728,1.728,0,0,1,.321,1.072v.531h2.5v-1.8a2.9,2.9,0,0,0-.218-1.137A2.622,2.622,0,0,0,473.373,489.356Z" transform="translate(-315.61 -488.626)" fill="#fff"/><path d="M510.121,496.418h22.044v-2.47H510.121V491.1h22.044v-2.47H507.623v13.14h24.542V499.3H510.121Z" transform="translate(-340.105 -488.626)" fill="#fff"/><path d="M603.1,493.69a2.579,2.579,0,0,0,.761,2.02,2.552,2.552,0,0,0,1.8.707h18.188a1.427,1.427,0,0,1,.94.285,1.249,1.249,0,0,1,.359,1.014v.253a1.218,1.218,0,0,1-.423,1.02,1.437,1.437,0,0,1-.9.308H603.1v2.47h21.985a2.547,2.547,0,0,0,1.8-.707,2.578,2.578,0,0,0,.762-2.02V496.7a2.641,2.641,0,0,0-.766-2.01,2.474,2.474,0,0,0-1.791-.745h-18.16a1.431,1.431,0,0,1-.905-.308,1.218,1.218,0,0,1-.422-1.019v-.254a1.218,1.218,0,0,1,.364-1,1.477,1.477,0,0,1,.935-.266h20.745v-2.47H605.657a2.547,2.547,0,0,0-1.8.707,2.578,2.578,0,0,0-.763,2.02Z" transform="translate(-380.428 -488.626)" fill="#fff"/><path d="M675.495,488.626h-2.983l2.19,3.825-4.012,7.05L664.4,488.626h-2.986l7.451,13.14h3.642l3.7-6.543,3.725,6.543h3.642l7.451-13.14h-2.986L681.752,499.5Z" transform="translate(-405.057 -488.626)" fill="#fff"/><path d="M728.6,488.626l-10.622,13.141h3.055l2.7-3.294h12.46l2.7,3.294h3.055l-10.619-13.141Zm-2.955,7.461,4.324-5.193,4.322,5.193Z" transform="translate(-428.943 -488.626)" fill="#fff"/><path d="M798.063,489.356a2.633,2.633,0,0,0-.834-.538,2.548,2.548,0,0,0-.958-.192H774.313v13.141h2.5v-5.349h19.459a2.723,2.723,0,0,0,.964-.18,2.438,2.438,0,0,0,.828-.522,2.621,2.621,0,0,0,.576-.846,2.95,2.95,0,0,0,.218-1.178v-2.337a2.886,2.886,0,0,0-.22-1.137A2.585,2.585,0,0,0,798.063,489.356Zm-1.7,3.377a1.043,1.043,0,0,1-.467.983,1.672,1.672,0,0,1-.86.232H776.811V491.1H795a1.5,1.5,0,0,1,.946.293,1.229,1.229,0,0,1,.41,1.034Z" transform="translate(-452.737 -488.626)" fill="#fff"/></g><path d="M173.81,468.119,160.5,460.437,147.2,468.119v15.364l12.631,7.292-12.465,7.2-.166.109v.383l13.305,7.682,13.305-7.682V483.1l-12.631-7.293,12.631-7.293ZM170.543,467l-.05,2.31-10.17-3.446a.956.956,0,0,0-.029-.411l3.642-2.268Zm-7.1-4.1-2.056,1.28L163,462.645ZM160.5,461.2l2.041,1.178-2.67,2.522a.966.966,0,0,0-.705-.119l-1.12-2.165Zm-2.892,1.67.992,1.918-1.814-1.444Zm-9.75,5.629,8.457-4.882,2.17,1.727a.961.961,0,0,0-.067.523l-10.56,4.671Zm0,2.593,10.764-4.762a.947.947,0,0,0,.2.184l-4.181,11.831a.932.932,0,0,0-.853.163l-5.93-3.481Zm0,12.006v-7.484l5.624,3.3a.96.96,0,0,0,.019.755.95.95,0,0,0,.1.166l-4.36,4.058Zm1.84,1.062,4.3-4.006a1.02,1.02,0,0,0,.206.064l-.763,6.106Zm4.222,2.438.8-6.433c.018-.007.037-.011.055-.019a.942.942,0,0,0,.127-.075l5.022,6.188-2.726,2.234Zm6.416-.64-5.072-6.249,9.9,2.583a.956.956,0,0,0,.08.423Zm5.231-2.851a.966.966,0,0,0,.467.173l-.09,15.362-5.343-12.253Zm-4.416,7.666-3.48-2.009,2.514-2.061,5.4,12.387a1.027,1.027,0,0,0-.079.07L156,493.75Zm-9,9.783-3.971-2.293,4.289-2.476Zm.5.042.341-5.115,2.5-1.442,9.769,5.561c-.008.032-.018.063-.023.1l-11.986,1.41A.961.961,0,0,0,152.657,500.6Zm7.813,4.759-6.6-3.813L165.3,500.2c.006.014.008.029.014.043a.812.812,0,0,0,.05.084Zm1.526-.842,3.734-3.835a.952.952,0,0,0,1.2-.214l1.141.544Zm11.151-6.437-4.548,2.625-1.455-.693a.961.961,0,0,0-.048-.508l6.051-4.364Zm0-14.226v10.663l-6.347,4.576a1,1,0,0,0-.144-.1l3.979-16.865Zm-6.685,13.758.084-14.419a.962.962,0,0,0,.537-.728l3.059-.447Zm3.348-16.057-2.79.408c-.006-.014-.008-.028-.014-.041a.961.961,0,0,0-.835-.557l-1.05-2.517Zm-9.958-5.749,4.547,2.625,1.272,3.05a.96.96,0,0,0-.354.326l-9.974-2.6a.958.958,0,0,0-.083-.338.975.975,0,0,0-.174-.252l4.217-11.932a.942.942,0,0,0,.193-.006l3.138,7.522Zm3.224-1.861-2.552-6.118,3.762,5.419Zm-2.966-7.6c.013-.016.025-.034.037-.051l10.191,3.46-5.611,3.24ZM171,469.373l.046-2.086,1.784,1.03Z" transform="translate(0)" fill="#fff"/></g></svg>