<svg xmlns="http://www.w3.org/2000/svg" width="35" height="31" viewBox="0 0 35 31"><defs><style>.a{fill:#7a7a7a;}.b{fill:#fff;}</style></defs><g transform="translate(-27 -399)"><g transform="translate(0 62)"><rect class="a" width="35" height="31" rx="5" transform="translate(27 337)"/></g><g transform="translate(31 406)"><path class="b" d="M19.727,17.759H7.888A.888.888,0,0,1,7,16.871V.888A.888.888,0,0,1,7.888,0h8.584a.3.3,0,0,1,.3.3V3.848a.3.3,0,0,0,.3.3h3.256a.3.3,0,0,1,.3.3V16.871A.888.888,0,0,1,19.727,17.759ZM7.888.592a.3.3,0,0,0-.3.3V16.871a.3.3,0,0,0,.3.3H19.727a.3.3,0,0,0,.3-.3V4.736h-2.96a.888.888,0,0,1-.888-.888V.592Z"/><path class="b" d="M42.144,4.738H38.888A.888.888,0,0,1,38,3.85V.3a.3.3,0,0,1,.512-.2L42.36,4.241a.3.3,0,0,1-.216.5ZM38.592,1.053v2.8a.3.3,0,0,0,.3.3h2.578Z" transform="translate(-21.825 -0.002)"/><path class="b" d="M11.3,22.592a.3.3,0,1,1,0-.592h0a.3.3,0,1,1,0,.592Z" transform="translate(-2.816 -15.488)"/><path class="b" d="M11.3,26.592a.3.3,0,1,1,0-.592h0a.3.3,0,1,1,0,.592Z" transform="translate(-2.816 -18.304)"/><path class="b" d="M11.3,30.592a.3.3,0,1,1,0-.592h0a.3.3,0,1,1,0,.592Z" transform="translate(-2.816 -21.121)"/><path class="b" d="M11.3,34.592a.3.3,0,1,1,0-.592h0a.3.3,0,1,1,0,.592Z" transform="translate(-2.816 -23.937)"/><path class="b" d="M11.3,10.592a.3.3,0,0,1,0-.592h0a.3.3,0,0,1,0,.592Z" transform="translate(-2.816 -7.04)"/><path class="b" d="M11.3,14.592a.3.3,0,0,1,0-.592h0a.3.3,0,0,1,0,.592Z" transform="translate(-2.816 -9.856)"/><path class="b" d="M11.3,18.592a.3.3,0,1,1,0-.592h0a.3.3,0,1,1,0,.592Z" transform="translate(-2.816 -12.672)"/><path class="b" d="M47.3,14.592a.3.3,0,0,1,0-.592h0a.3.3,0,0,1,0,.592Z" transform="translate(-28.161 -9.856)"/><path class="b" d="M47.3,22.592a.3.3,0,0,1,0-.592h0a.3.3,0,0,1,0,.592Z" transform="translate(-28.161 -15.488)"/><path class="b" d="M47.3,26.592a.3.3,0,0,1,0-.592h0a.3.3,0,0,1,0,.592Z" transform="translate(-28.161 -18.304)"/><path class="b" d="M47.3,30.592a.3.3,0,0,1,0-.592h0a.3.3,0,0,1,0,.592Z" transform="translate(-28.161 -21.121)"/><path class="b" d="M47.3,34.592a.3.3,0,1,1,0-.592h0a.3.3,0,1,1,0,.592Z" transform="translate(-28.161 -23.937)"/><path class="b" d="M47.3,38.592a.3.3,0,1,1,0-.592h0a.3.3,0,1,1,0,.592Z" transform="translate(-28.161 -26.753)"/><path class="b" d="M11.3,38.592a.3.3,0,1,1,0-.592h0a.3.3,0,1,1,0,.592Z" transform="translate(-2.816 -26.753)"/><path class="b" d="M11.3,42.592a.3.3,0,1,1,0-.592h0a.3.3,0,1,1,0,.592Z" transform="translate(-2.816 -29.569)"/><path class="b" d="M11.3,46.592a.3.3,0,1,1,0-.592h0a.3.3,0,1,1,0,.592Z" transform="translate(-2.816 -32.385)"/><path class="b" d="M47.3,42.592a.3.3,0,1,1,0-.592h0a.3.3,0,1,1,0,.592Z" transform="translate(-28.161 -29.569)"/><path class="b" d="M47.3,46.592a.3.3,0,1,1,0-.592h0a.3.3,0,1,1,0,.592Z" transform="translate(-28.161 -32.385)"/><path class="b" d="M47.3,50.592a.3.3,0,1,1,0-.592h0a.3.3,0,1,1,0,.592Z" transform="translate(-28.161 -35.201)"/><path class="b" d="M11.3,50.592a.3.3,0,1,1,0-.592h0a.3.3,0,1,1,0,.592Z" transform="translate(-2.816 -35.201)"/><path class="b" d="M11.3,54.592a.3.3,0,0,1,0-.592h0a.3.3,0,0,1,0,.592Z" transform="translate(-2.816 -38.017)"/><path class="b" d="M47.3,54.592a.3.3,0,0,1,0-.592h0a.3.3,0,0,1,0,.592Z" transform="translate(-28.161 -38.017)"/><path class="b" d="M28.548,34.671a1.184,1.184,0,0,1-.838-.346.3.3,0,0,1,.417-.417.61.61,0,0,0,.838,0l1.048-1.048a.592.592,0,0,0,0-.838.61.61,0,0,0-.838,0l-.21.21a.3.3,0,0,1-.417-.417l.21-.21a1.185,1.185,0,0,1,1.675,1.675l-1.048,1.048A1.184,1.184,0,0,1,28.548,34.671Z" transform="translate(-14.531 -22.006)"/><path class="b" d="M22.942,39.613a1.184,1.184,0,0,1-.838-2.022l1.048-1.048a1.184,1.184,0,0,1,1.675,0,.3.3,0,0,1-.417.417.61.61,0,0,0-.838,0l-1.048,1.048a.592.592,0,0,0,0,.838.61.61,0,0,0,.838,0l.21-.21a.3.3,0,1,1,.42.417l-.21.21A1.184,1.184,0,0,1,22.942,39.613Z" transform="translate(-10.389 -25.483)"/></g></g></svg>