<svg xmlns="http://www.w3.org/2000/svg" width="35" height="31" viewBox="0 0 35 31"><defs><style>.a{fill:#3297f4;}.b{fill:#fff;}</style></defs><g transform="translate(-27 -643)"><rect class="a" width="35" height="31" rx="5" transform="translate(27 643)"/><path class="b" d="M5.823,14.211l17.9-6.9c.831-.3,1.556.2,1.287,1.459l0,0L21.965,23.126c-.226,1.018-.831,1.266-1.677.786l-4.642-3.421-2.239,2.157a1.171,1.171,0,0,1-.936.456l.33-4.724,8.6-7.772c.374-.33-.084-.515-.577-.187L10.2,17.115l-4.583-1.43c-.995-.316-1.017-.995.21-1.474Z" transform="translate(29.116 642.775)"/></g></svg>