<svg xmlns="http://www.w3.org/2000/svg" width="35" height="31" viewBox="0 0 35 31"><defs><style>.a{fill:#7a7a7a;}.b{fill:#fff;}</style></defs><g transform="translate(-27 -552)"><g transform="translate(0 215)"><rect class="a" width="35" height="31" rx="5" transform="translate(27 337)"/></g><g transform="translate(22 537)"><g transform="translate(12 23)"><path class="b" d="M22.7,975.362a.563.563,0,0,0-.563.563v3.94h1.126v-3.94A.563.563,0,0,0,22.7,975.362Zm-5.348,3.378c-4.011,0-5.066,8.725-5.348,10.555a1.267,1.267,0,0,0,1.267,1.267c1.548,0,6.5-5.06,6.614-5.629H25.51c.11.569,5.066,5.629,6.614,5.629a1.267,1.267,0,0,0,1.267-1.267c-.281-1.829-1.336-10.555-5.348-10.555a3.181,3.181,0,0,0-2.815,1.689H20.162A3.181,3.181,0,0,0,17.348,978.74Zm0,1.689a.563.563,0,0,1,.563.563v.844h.844a.563.563,0,1,1,0,1.126h-.844v.844a.563.563,0,0,1-1.126,0v-.844H15.94a.563.563,0,1,1,0-1.126h.844v-.844A.563.563,0,0,1,17.348,980.428Zm10.7,0a.563.563,0,1,1-.563.563A.563.563,0,0,1,28.043,980.428Zm-1.407,1.407a.563.563,0,1,1-.563.563A.563.563,0,0,1,26.636,981.836Zm2.815,0a.563.563,0,1,1-.563.563A.563.563,0,0,1,29.45,981.836Zm-1.407,1.407a.563.563,0,1,1-.563.563A.563.563,0,0,1,28.043,983.243Z" transform="translate(-12 -975.362)"/></g></g></g></svg>