<svg xmlns="http://www.w3.org/2000/svg" width="35" height="31" viewBox="0 0 35 31"><defs><style>.a{fill:#7a7a7a;}.b{fill:#fff;}</style></defs><g transform="translate(-27 -450)"><g transform="translate(0 113)"><rect class="a" width="35" height="31" rx="5" transform="translate(27 337)"/></g><g transform="translate(35.563 456.563)"><g transform="translate(1 1)"><path class="b" d="M8.937,1a7.937,7.937,0,1,0,7.937,7.937A7.937,7.937,0,0,0,8.937,1Zm0,12.988a.722.722,0,1,1,.722-.722A.722.722,0,0,1,8.937,13.988Zm3.608-6.494A2.165,2.165,0,0,1,10.38,9.659a.722.722,0,0,0-.722.722V11.1a.722.722,0,0,1-1.443,0V10.38A2.165,2.165,0,0,1,10.38,8.216a.722.722,0,0,0,.722-.722V6.772a.722.722,0,0,0-.722-.722H7.494a.722.722,0,0,0-.722.722v.722a.722.722,0,0,1-1.443,0V6.772A2.165,2.165,0,0,1,7.494,4.608H10.38a2.165,2.165,0,0,1,2.165,2.165Z" transform="translate(-1 -1)"/></g></g></g></svg>