<svg xmlns="http://www.w3.org/2000/svg" width="17.388" height="24.781" viewBox="0 0 17.388 24.781"><defs><style>.a{fill:#3297f4;}</style></defs><g transform="translate(-16.661 27.286) rotate(-90)"><g transform="translate(2.505 16.661)"><path class="a" d="M17.7,25.263a1.759,1.759,0,0,0,1.933,1.567l5.981-.653a1.729,1.729,0,0,0,1.175-.653,1.793,1.793,0,0,0,.366-1.306L26.5,18.238A1.759,1.759,0,0,0,23,18.6l.209,1.88-.653-.392-1.306-.679c-.444-.209-.888-.392-1.332-.6a23.467,23.467,0,0,0-5.615-1.489,22.271,22.271,0,0,0-5.745-.052,26.591,26.591,0,0,0-2.821.5,22.968,22.968,0,0,0-2.69.836.839.839,0,0,0-.522.992.823.823,0,0,0,1.019.6h0c.888-.209,1.7-.392,2.585-.522a21.558,21.558,0,0,1,2.585-.209,21.06,21.06,0,0,1,5.119.548,19.994,19.994,0,0,1,4.753,1.776l1.1.627,1.045.679.078.052L19.27,23.3a1.754,1.754,0,0,0-1.567,1.75A.286.286,0,0,0,17.7,25.263Z" transform="translate(-2.505 -16.661)"/><path class="a" d="M5.585,54.5a1.759,1.759,0,0,0,1.567-1.933l-.209-1.88.653.392,1.306.679c.444.209.888.392,1.332.6a23.466,23.466,0,0,0,5.615,1.489,22.272,22.272,0,0,0,5.745.052,26.591,26.591,0,0,0,2.821-.5,22.968,22.968,0,0,0,2.69-.836.839.839,0,0,0,.522-.992.823.823,0,0,0-1.019-.6h0c-.888.209-1.7.392-2.585.522a21.562,21.562,0,0,1-2.585.209,21.06,21.06,0,0,1-5.119-.548,19.994,19.994,0,0,1-4.753-1.776l-1.1-.627-1.045-.679-.078-.052,1.541-.157a1.759,1.759,0,0,0-.366-3.5l-5.954.653a1.729,1.729,0,0,0-1.175.653A1.712,1.712,0,0,0,3,46.774v.183l.653,5.981A1.759,1.759,0,0,0,5.585,54.5Z" transform="translate(-2.871 -37.127)"/></g></g></svg>