<svg xmlns="http://www.w3.org/2000/svg" width="35" height="31" viewBox="0 0 35 31"><defs><style>.a{fill:#3297f4;}.b{fill:#fff;}</style></defs><g transform="translate(-27 -694)"><rect class="a" width="35" height="31" rx="5" transform="translate(27 694)"/><path class="b" d="M46.851,36.12a8.9,8.9,0,0,1-2.563.7,4.474,4.474,0,0,0,1.962-2.468,8.932,8.932,0,0,1-2.833,1.082,4.466,4.466,0,0,0-7.6,4.07,12.666,12.666,0,0,1-9.2-4.663A4.467,4.467,0,0,0,28,40.8a4.431,4.431,0,0,1-2.021-.559c0,.019,0,.038,0,.057a4.465,4.465,0,0,0,3.579,4.375,4.479,4.479,0,0,1-2.015.077,4.467,4.467,0,0,0,4.168,3.1A9.007,9.007,0,0,1,25.1,49.7,12.689,12.689,0,0,0,44.638,39.007c0-.193,0-.386-.013-.577a9.048,9.048,0,0,0,2.227-2.309Z" transform="translate(8.897 666.972)"/></g></svg>