<svg xmlns="http://www.w3.org/2000/svg" width="35" height="31" viewBox="0 0 35 31"><defs><style>.a{fill:#7a7a7a;}.b{fill:#fff;}</style></defs><g transform="translate(-27 -337)"><rect class="a" width="35" height="31" rx="5" transform="translate(27 337)"/><g transform="translate(33.781 342.537)"><g transform="translate(1.4 1.025)"><path class="b" d="M3.522,43.458H1.4V37.4H3.522a.739.739,0,0,1,.726.726v4.606h0A.7.7,0,0,1,3.522,43.458Zm15.187-2.373-5.584,3.49a3.554,3.554,0,0,1-3.49.168c-3.294-1.535-3.769-2.094-5.081-2.122V38.265H7.346c2.178,0,2.15,1.954,4.467,1.954h1.843a.726.726,0,1,1,0,1.452H9.887a.14.14,0,0,0,0,.279h3.769a.673.673,0,0,0,.419-.112h0l3.936-2.01a.719.719,0,0,1,.7,1.256Z" transform="translate(-1.4 -27.245)"/><g transform="translate(5.611)"><circle class="b" cx="0.279" cy="0.279" r="0.279" transform="translate(4.523 1.612)"/><circle class="b" cx="0.279" cy="0.279" r="0.279" transform="translate(1.424 6.972)"/><path class="b" d="M33.726,13.7a1.926,1.926,0,1,0,1.926,1.926A1.93,1.93,0,0,0,33.726,13.7Zm.5,1.591h-.335v-.028a.209.209,0,0,0-.251-.2.336.336,0,0,0-.14.14.2.2,0,0,0,.2.251.42.42,0,0,1,.307.112.524.524,0,0,1-.168.893v.028a.168.168,0,1,1-.335,0v-.028a.541.541,0,0,1-.363-.475v-.028h.391v.028a.209.209,0,0,0,.251.2.336.336,0,0,0,.14-.14.2.2,0,0,0-.2-.251.42.42,0,0,1-.307-.112.524.524,0,0,1,.168-.893v-.028a.168.168,0,0,1,.335,0v.028a.541.541,0,0,1,.363.475v.028Z" transform="translate(-28.924 -10.161)"/><path class="b" d="M30.992,3.726l-4.634-2.68a.125.125,0,0,0-.14,0l-4.634,2.68a.15.15,0,0,0-.084.112V9.2c0,.056.028.112.084.112l4.634,2.68c.028,0,.056.028.084.028a.1.1,0,0,0,.084-.028L31.02,9.31A.15.15,0,0,0,31.1,9.2V3.838A.218.218,0,0,0,30.992,3.726Zm-1.759.726.279.168v.419h-.279V4.787l-.14-.084Zm0,1.759V5.624h.279v.586Zm.279.558v.5h-.279v-.5ZM27.223,3.307l.5.279-.14.251-.5-.279ZM26.3,2.358a.558.558,0,1,1-.558.558A.543.543,0,0,1,26.3,2.358Zm-.949.949.14.251-.419.251-.14-.251ZM23.063,4.619l.363-.2.14.251-.2.112v.168h-.279V4.619Zm0,.921h.279v.586h-.279Zm0,1.173h.279V7.3h-.279Zm.14,2.15a.558.558,0,1,1,.558-.558A.579.579,0,0,1,23.2,8.863Zm1.2-5.025.14.251-.5.279-.14-.251Zm0,5.3-.419-.251.14-.251.419.251Zm1.005.558-.5-.279.14-.251.5.279Zm.893.5-.363-.223.14-.251.223.14.14-.084.14.251Zm.754-.447-.14-.251.5-.279.14.251ZM26.3,8.7A2.205,2.205,0,1,1,28.507,6.49,2.21,2.21,0,0,1,26.3,8.7Zm1.759.5-.14-.251.5-.279.14.251Zm.53-4.774-.5-.279.14-.251.5.279Zm.782,4.439a.558.558,0,1,1,.558-.558A.579.579,0,0,1,29.373,8.863Z" transform="translate(-21.5 -1.025)"/><circle class="b" cx="0.279" cy="0.279" r="0.279" transform="translate(7.594 6.972)"/></g></g></g></g></svg>