<svg xmlns="http://www.w3.org/2000/svg" width="35" height="31" viewBox="0 0 35 31"><defs><style>.a{fill:#7a7a7a;}.b{fill:#fff;}</style></defs><g transform="translate(-27 -501)"><g transform="translate(0 164)"><rect class="a" width="35" height="31" rx="5" transform="translate(27 337)"/></g><g transform="translate(2 472)"><g transform="translate(32 36)"><path class="b" d="M35.616,45.642a1.209,1.209,0,0,1-1.205-1.205V39.616a1.209,1.209,0,0,1,1.205-1.205h8.437a1.209,1.209,0,0,1,1.205,1.205v4.821a1.209,1.209,0,0,1-1.205,1.205H42.848a1.205,1.205,0,0,0,0,2.411h1.205a3.627,3.627,0,0,0,3.616-3.616V39.616A3.627,3.627,0,0,0,44.053,36H35.616A3.627,3.627,0,0,0,32,39.616v4.821a3.627,3.627,0,0,0,3.616,3.616,1.205,1.205,0,0,0,0-2.411Z" transform="translate(-32 -36)"/><path class="b" d="M54.053,44a1.205,1.205,0,1,0,0,2.411,1.209,1.209,0,0,1,1.205,1.205v4.821a1.209,1.209,0,0,1-1.205,1.205H45.616a1.209,1.209,0,0,1-1.205-1.205V47.616a1.209,1.209,0,0,1,1.205-1.205h1.205a1.205,1.205,0,1,0,0-2.411H45.616A3.627,3.627,0,0,0,42,47.616v4.821a3.627,3.627,0,0,0,3.616,3.616h8.437a3.627,3.627,0,0,0,3.616-3.616V47.616A3.627,3.627,0,0,0,54.053,44Z" transform="translate(-35.973 -39.179)"/></g></g></g></svg>