<svg xmlns="http://www.w3.org/2000/svg" width="35" height="31" viewBox="0 0 35 31"><defs><style>.a{fill:#7a7a7a;}.b{fill:#fff;}</style></defs><g transform="translate(-27 -195)"><rect class="a" width="35" height="31" rx="5" transform="translate(27 195)"/><g transform="translate(27.954 191.755)"><path class="b" d="M65.955,42.528c.021-.086,1.288-1.8,1.288-1.8a21.36,21.36,0,0,1,.6-3.135c.086-.215.429-.644.644-.6s.365.773.365.773l-.129,3.478-.666,3.135-2.877,3.95H62.391a24.082,24.082,0,0,1,.15-4.251A20.168,20.168,0,0,1,64.367,40.9s.558-.6.794-.537.365.623.365.859a17.377,17.377,0,0,1-.279,1.932Z" transform="translate(-43.162 -21.035)"/><path class="b" d="M80.14,42.032a12.747,12.747,0,0,0,.3-1.524c-.043-.086-.644-1.374-.644-1.374s-.365-.279-.494-.193c-.15.086-.236.558-.215.751A10.921,10.921,0,0,0,80.14,42.032Z" transform="translate(-56.294 -22.557)"/><path class="b" d="M77.836,50.313a13.219,13.219,0,0,0,.58,1.374l.6-.837-.6-.923s-.408-.193-.515-.107S77.814,50.206,77.836,50.313Z" transform="translate(-55.3 -31.096)"/><path class="b" d="M10.3,42.528c-.021-.086-1.288-1.8-1.288-1.8a21.359,21.359,0,0,0-.6-3.135c-.086-.215-.429-.644-.644-.6s-.365.773-.365.773l.129,3.478.666,3.135,2.877,3.95h2.791a24.082,24.082,0,0,0-.15-4.251A20.168,20.168,0,0,0,11.887,40.9s-.558-.6-.794-.537-.365.623-.365.859a17.377,17.377,0,0,0,.279,1.932Z" transform="translate(0 -21.035)"/><path class="b" d="M17.781,50.313a13.217,13.217,0,0,1-.58,1.374l-.6-.837.6-.923s.408-.193.515-.107S17.8,50.206,17.781,50.313Z" transform="translate(-7.225 -31.096)"/><path class="b" d="M14.886,42.032a12.744,12.744,0,0,1-.3-1.524c.043-.086.644-1.374.644-1.374s.365-.279.494-.193c.15.086.236.558.215.751A10.92,10.92,0,0,1,14.886,42.032Z" transform="translate(-5.64 -22.557)"/><path class="b" d="M29.116,12.776a683.477,683.477,0,0,1-.043-.043L27.527,10.35c-.021-.021-.021-.021-.021-.043l-.021-.021a.021.021,0,0,1-.021-.021c-.021-.021-.021-.021-.043-.021a.021.021,0,0,1-.021-.021c-.021,0-.021-.021-.043-.021H15.2a.075.075,0,0,0-.043.021h-.021a.021.021,0,0,0-.021.021c-.021,0-.021.021-.043.021a.021.021,0,0,0-.021.021c-.021.021-.021.043-.043.043l-1.567,2.4a.021.021,0,0,1-.021.021v.021a.021.021,0,0,1-.021.021h0v.172h0v.021a1367.152,1367.152,0,0,1,.043.043l.021.021.021.021,7.429,6.784a.353.353,0,0,0,.322.172.378.378,0,0,0,.279-.129c.021-.021.021-.043.043-.064l7.429-6.784.021-.021h.021a683.492,683.492,0,0,0,.043-.043V12.97h0v-.15l.043-.043Zm-1.975-1.718.9,1.4h-2.3Zm-2.383,1.288-2.254-1.5H26.26Zm-3.156.129v-1.31l1.954,1.31Zm0,.751h2.576L21.6,18.165Zm3.435,0h2.727l-5.174,4.723ZM15.354,11.08l1.4,1.4h-2.3l.451-.709Zm2.083,2.147,2.469,4.723-5.174-4.723Zm3.414,0v4.917L18.3,13.227Zm0-2.018v1.267H18.918Zm-3.113,1.138-1.5-1.5h3.779Z" transform="translate(-4.712)"/></g></g></svg>