<svg xmlns="http://www.w3.org/2000/svg" width="35" height="31" viewBox="0 0 35 31"><defs><style>.a{fill:#3297f4;}.b{fill:#fff;}</style></defs><g transform="translate(-27 -246)"><rect class="a" width="35" height="31" rx="5" transform="translate(27 246)"/><g transform="translate(29.088 246.329)"><g transform="translate(3.912 11.671)"><path class="b" d="M3.943,15.795a.9.9,0,0,0,.036.181.942.942,0,0,0,.092.14.875.875,0,0,0,.107.162h0v0l3.057,3.044a.915.915,0,0,0,1.291-1.3L7.041,16.546H22.876L21.432,18.04a.915.915,0,0,0,1.316,1.272l2.942-3.044a.906.906,0,0,0,.169-.256c.012-.027.018-.054.028-.081a.907.907,0,0,0,.049-.228.878.878,0,0,0,0-.1.9.9,0,0,0-.043-.245c-.007-.023-.009-.046-.018-.068l0-.015a.907.907,0,0,0-.169-.255C25.7,15.012,25.7,15,25.69,15l-2.942-3.044a.915.915,0,1,0-1.316,1.272l1.443,1.494H7.041l1.487-1.481a.915.915,0,0,0-1.291-1.3L4.181,14.983v0h0a.875.875,0,0,0-.107.162.942.942,0,0,0-.092.14.9.9,0,0,0-.036.181.919.919,0,0,0-.031.163.919.919,0,0,0,.031.163Z" transform="translate(-3.912 -11.671)"/></g></g></g></svg>