<svg xmlns="http://www.w3.org/2000/svg" width="35" height="31" viewBox="0 0 35 31"><defs><style>.a{fill:#7a7a7a;}.b{fill:#fff;}</style></defs><g transform="translate(-27 -297)"><rect class="a" width="35" height="31" rx="5" transform="translate(27 297)"/><g transform="translate(35.297 302.971)"><g transform="translate(1.703 0.029)"><path class="b" d="M1.7,14.235v.921h.9a.64.64,0,0,0-.037-.877A.669.669,0,0,0,1.7,14.235Z" transform="translate(-1.703 -3.272)"/><path class="b" d="M7.385,13v-1.13H4.035a.33.33,0,0,1-.33-.33V6.206a.33.33,0,0,1,.33-.33h2.45a3.582,3.582,0,0,1-.424-1.128H3.353A1.305,1.305,0,0,1,1.7,6.41v4.936a1.344,1.344,0,0,1,1.333.31,1.311,1.311,0,0,1,.386.933A1.3,1.3,0,0,1,3.351,13Z" transform="translate(-1.703 -1.117)"/><rect class="b" width="3.967" height="1.285" transform="translate(5.95 17.137)"/><path class="b" d="M11.11,5.971A2.971,2.971,0,1,0,8.139,3,2.974,2.974,0,0,0,11.11,5.971Zm.648-2.647h-1.3a.973.973,0,0,1-.972-.972V2.027a.973.973,0,0,1,.972-.972h.318V.808a.33.33,0,1,1,.66,0v.248h.319a.973.973,0,0,1,.972.972h-.648a.324.324,0,0,0-.324-.324h-1.3a.324.324,0,0,0-.324.324v.324a.324.324,0,0,0,.324.324h1.3a.973.973,0,0,1,.972.972v.324a.973.973,0,0,1-.972.972H11.44v.248a.33.33,0,1,1-.66,0V4.944h-.318a.973.973,0,0,1-.972-.972h.648a.324.324,0,0,0,.324.324h1.3a.324.324,0,0,0,.324-.324V3.648A.324.324,0,0,0,11.758,3.324Z" transform="translate(-3.187 -0.029)"/><path class="b" d="M2.569,5.624a.654.654,0,0,0,.038-.876H1.7v.92A.669.669,0,0,0,2.569,5.624Z" transform="translate(-1.703 -1.117)"/><path class="b" d="M13.514,11.186a.289.289,0,0,0-.287.257v1.47a.328.328,0,1,1-.656,0v-.184a.241.241,0,0,1,0-.035V11.475c0-.021,0-.041,0-.062v-.583A.289.289,0,0,0,12,10.8v2.114a.328.328,0,1,1-.656,0v-.184a.241.241,0,0,1,0-.035V10.831c0-.021,0-.041,0-.062v-.522a.29.29,0,0,0-.579,0v.523q0,.029,0,.06v2.081a.328.328,0,1,1-.656,0v-.184a.241.241,0,0,1,0-.035v-1.9a.29.29,0,0,0-.577.036v3.479h0v.255a.3.3,0,0,1-.279.293v0H8.157l.112.564a2.681,2.681,0,0,0,.742,1.387l.667.666a.323.323,0,0,1,.1.232V18.8h2.711V17.712a.329.329,0,0,1,.1-.232l.431-.43A2.678,2.678,0,0,0,13.8,15.14V11.475A.291.291,0,0,0,13.514,11.186Z" transform="translate(-3.191 -2.318)"/><path class="b" d="M19.51,6.091a1.29,1.29,0,0,1-.316-1.343H16.5a3.582,3.582,0,0,1-.424,1.128H18.51a.33.33,0,0,1,.33.33v5.335a.33.33,0,0,1-.33.33H16.284V13h2.909a1.31,1.31,0,0,1,1.67-1.657V6.4a1.292,1.292,0,0,1-1.353-.313Z" transform="translate(-5.018 -1.117)"/><path class="b" d="M21.049,4.748a.65.65,0,0,0,.926.907V4.748Z" transform="translate(-6.128 -1.117)"/><path class="b" d="M21.085,14.276a.641.641,0,0,0-.037.878h.925v-.909A.658.658,0,0,0,21.085,14.276Z" transform="translate(-6.127 -3.27)"/><path class="b" d="M13.768,11.743h1.9V7.069H13.088a3.59,3.59,0,0,1-5.337-.012.284.284,0,0,1-.058.012H5.163v4.674h3.02V10.162a.946.946,0,0,1,.945-.945.923.923,0,0,1,.335.062.941.941,0,0,1,.9-.644.953.953,0,0,1,.9.644.943.943,0,0,1,1.249.639.943.943,0,0,1,.546-.007h0a.889.889,0,0,1,.215.062,1.1,1.1,0,0,1,.5.969Z" transform="translate(-2.501 -1.649)"/></g></g></g></svg>